<mxfile host="app.diagrams.net" agent="Mozilla/5.0 (Macintosh; Intel Mac OS X 10_15_7) AppleWebKit/537.36 (KHTML, like Gecko) Chrome/131.0.0.0 Safari/537.36" version="25.0.3">
  <diagram name="Page-1" id="3i_RpfIaB-K9AsYMlYp3">
    <mxGraphModel dx="1314" dy="787" grid="1" gridSize="10" guides="1" tooltips="1" connect="1" arrows="1" fold="1" page="1" pageScale="1" pageWidth="850" pageHeight="1100" math="0" shadow="0">
      <root>
        <mxCell id="0" />
        <mxCell id="1" parent="0" />
        <mxCell id="_oYapPeJHf3DlwScVLxS-2" value="Upload document" style="swimlane;whiteSpace=wrap;html=1;" vertex="1" parent="1">
          <mxGeometry x="80" y="90" width="530" height="280" as="geometry" />
        </mxCell>
        <mxCell id="_oYapPeJHf3DlwScVLxS-4" value="" style="endArrow=classic;html=1;rounded=0;exitX=1;exitY=0.5;exitDx=0;exitDy=0;" edge="1" parent="_oYapPeJHf3DlwScVLxS-2" source="_oYapPeJHf3DlwScVLxS-17" target="_oYapPeJHf3DlwScVLxS-5">
          <mxGeometry width="50" height="50" relative="1" as="geometry">
            <mxPoint x="180" y="180" as="sourcePoint" />
            <mxPoint x="230" y="180" as="targetPoint" />
          </mxGeometry>
        </mxCell>
        <mxCell id="_oYapPeJHf3DlwScVLxS-5" value="Filerr_package" style="shape=process;whiteSpace=wrap;html=1;backgroundOutline=1;" vertex="1" parent="_oYapPeJHf3DlwScVLxS-2">
          <mxGeometry x="250" y="150" width="120" height="60" as="geometry" />
        </mxCell>
        <mxCell id="_oYapPeJHf3DlwScVLxS-11" value="" style="endArrow=classic;html=1;rounded=0;" edge="1" parent="_oYapPeJHf3DlwScVLxS-2">
          <mxGeometry relative="1" as="geometry">
            <mxPoint x="370" y="179.5" as="sourcePoint" />
            <mxPoint x="560" y="180" as="targetPoint" />
          </mxGeometry>
        </mxCell>
        <mxCell id="_oYapPeJHf3DlwScVLxS-12" value="Pending attachment ids" style="edgeLabel;resizable=0;html=1;;align=center;verticalAlign=middle;" connectable="0" vertex="1" parent="_oYapPeJHf3DlwScVLxS-11">
          <mxGeometry relative="1" as="geometry" />
        </mxCell>
        <mxCell id="_oYapPeJHf3DlwScVLxS-16" value="Props:&lt;div&gt;- Upload button component&lt;/div&gt;" style="text;html=1;align=left;verticalAlign=middle;resizable=0;points=[];autosize=1;strokeColor=none;fillColor=none;" vertex="1" parent="_oYapPeJHf3DlwScVLxS-2">
          <mxGeometry x="25" y="33" width="170" height="40" as="geometry" />
        </mxCell>
        <mxCell id="_oYapPeJHf3DlwScVLxS-17" value="Droppable" style="swimlane;whiteSpace=wrap;html=1;" vertex="1" parent="_oYapPeJHf3DlwScVLxS-2">
          <mxGeometry x="20" y="125" width="165" height="95" as="geometry" />
        </mxCell>
        <mxCell id="_oYapPeJHf3DlwScVLxS-3" value="Upload button component" style="rounded=1;whiteSpace=wrap;html=1;" vertex="1" parent="_oYapPeJHf3DlwScVLxS-17">
          <mxGeometry x="13" y="35" width="140" height="50" as="geometry" />
        </mxCell>
        <mxCell id="_oYapPeJHf3DlwScVLxS-23" value="Upload preview card" style="rounded=0;whiteSpace=wrap;html=1;" vertex="1" parent="_oYapPeJHf3DlwScVLxS-2">
          <mxGeometry x="20" y="220" width="160" height="30" as="geometry" />
        </mxCell>
        <mxCell id="_oYapPeJHf3DlwScVLxS-14" value="Legal docs pegasus" style="ellipse;shape=cloud;whiteSpace=wrap;html=1;" vertex="1" parent="1">
          <mxGeometry x="640" y="200" width="180" height="120" as="geometry" />
        </mxCell>
        <mxCell id="_oYapPeJHf3DlwScVLxS-19" value="Upload preview card" style="swimlane;whiteSpace=wrap;html=1;" vertex="1" parent="1">
          <mxGeometry x="80" y="430" width="530" height="140" as="geometry" />
        </mxCell>
        <mxCell id="_oYapPeJHf3DlwScVLxS-21" value="Status color" style="rounded=1;whiteSpace=wrap;html=1;" vertex="1" parent="_oYapPeJHf3DlwScVLxS-19">
          <mxGeometry x="10" y="80" width="100" height="40" as="geometry" />
        </mxCell>
        <mxCell id="_oYapPeJHf3DlwScVLxS-22" value="File icon" style="rounded=1;whiteSpace=wrap;html=1;" vertex="1" parent="_oYapPeJHf3DlwScVLxS-19">
          <mxGeometry x="120" y="80" width="80" height="40" as="geometry" />
        </mxCell>
        <mxCell id="_oYapPeJHf3DlwScVLxS-26" value="Remove" style="rounded=1;whiteSpace=wrap;html=1;" vertex="1" parent="_oYapPeJHf3DlwScVLxS-19">
          <mxGeometry x="420" y="90" width="70" height="30" as="geometry" />
        </mxCell>
        <mxCell id="_oYapPeJHf3DlwScVLxS-27" value="Props:&lt;div&gt;- Files&lt;/div&gt;&lt;div&gt;- On remove&lt;/div&gt;" style="text;html=1;align=left;verticalAlign=middle;resizable=0;points=[];autosize=1;strokeColor=none;fillColor=none;" vertex="1" parent="_oYapPeJHf3DlwScVLxS-19">
          <mxGeometry x="15" y="20" width="90" height="60" as="geometry" />
        </mxCell>
        <mxCell id="_oYapPeJHf3DlwScVLxS-24" value="Upload preview card" style="rounded=0;whiteSpace=wrap;html=1;" vertex="1" parent="1">
          <mxGeometry x="110" y="320" width="160" height="30" as="geometry" />
        </mxCell>
        <mxCell id="_oYapPeJHf3DlwScVLxS-25" value="Upload preview card" style="rounded=0;whiteSpace=wrap;html=1;" vertex="1" parent="1">
          <mxGeometry x="120" y="330" width="160" height="30" as="geometry" />
        </mxCell>
        <mxCell id="_oYapPeJHf3DlwScVLxS-28" value="" style="shape=flexArrow;endArrow=classic;html=1;rounded=0;" edge="1" parent="1">
          <mxGeometry width="50" height="50" relative="1" as="geometry">
            <mxPoint x="290" y="600" as="sourcePoint" />
            <mxPoint x="290" y="700" as="targetPoint" />
          </mxGeometry>
        </mxCell>
        <mxCell id="_oYapPeJHf3DlwScVLxS-29" value="Exports permutations" style="text;html=1;align=center;verticalAlign=middle;resizable=0;points=[];autosize=1;strokeColor=none;fillColor=none;" vertex="1" parent="1">
          <mxGeometry x="310" y="620" width="140" height="30" as="geometry" />
        </mxCell>
        <mxCell id="_oYapPeJHf3DlwScVLxS-31" value="Modal" style="shape=cube;whiteSpace=wrap;html=1;boundedLbl=1;backgroundOutline=1;darkOpacity=0.05;darkOpacity2=0.1;" vertex="1" parent="1">
          <mxGeometry x="410" y="730" width="120" height="80" as="geometry" />
        </mxCell>
        <mxCell id="_oYapPeJHf3DlwScVLxS-32" value="Plain" style="shape=cube;whiteSpace=wrap;html=1;boundedLbl=1;backgroundOutline=1;darkOpacity=0.05;darkOpacity2=0.1;" vertex="1" parent="1">
          <mxGeometry x="140" y="730" width="120" height="80" as="geometry" />
        </mxCell>
      </root>
    </mxGraphModel>
  </diagram>
</mxfile>
